<mxfile host="app.diagrams.net" modified="2023-06-28T23:33:32.023Z" agent="Mozilla/5.0 (Windows NT 10.0; Win64; x64) AppleWebKit/537.36 (KHTML, like Gecko) Chrome/114.0.0.0 Safari/537.36" version="21.5.2" etag="BfD9PvfNz_wI7tbTXduD" type="github">
  <diagram name="PÃ¡gina-1" id="so-5vj62N6WBARatOOUM">
    <mxGraphModel>
      <root>
        <mxCell id="0" />
        <mxCell id="1" parent="0" />
      </root>
    </mxGraphModel>
  </diagram>
</mxfile>
